<svg width="556" height="534" viewBox="0 0 556 534" fill="none" xmlns="http://www.w3.org/2000/svg">
<g clip-path="url(#clip0_2187_1959)">
<g opacity="0.26">
<path d="M342.214 472.102C372.246 442.626 383.415 399.621 404.003 363.62C429.472 319.102 454.967 274.611 480.436 230.093C489.961 213.432 499.591 196.585 504.818 178.12C514.422 144.215 502.138 105.136 481.259 77.5974C449.343 35.4674 388.138 16.684 339.667 37.749C309.264 50.961 286.633 76.8545 260.74 97.5215C224.155 126.731 180.645 145.7 137.693 164.325C94.1301 183.214 51.8145 196.4 37.0371 247.152C21.1721 301.592 32.2086 363.301 62.5061 410.87C97.8444 466.291 158.28 502.558 223.677 508.395C262.358 511.844 302.87 504.362 333.751 479.636C336.722 477.222 339.535 474.701 342.214 472.102Z" fill="url(#paint0_linear_2187_1959)"/>
</g>
<g filter="url(#filter0_d_2187_1959)">
<path d="M20.1626 102.827C50.6458 23.4756 167.697 27.747 201.231 102.429C211.419 125.113 213.462 152.147 230.043 170.665C252.275 195.471 291.805 194.808 323.244 183.877C354.682 172.947 383.308 153.819 415.94 147.212C472.98 135.672 520.31 185.045 536.308 235.797C553.897 291.59 538.324 355.13 501.686 400.735C465.048 446.341 409.414 474.622 351.684 484.12C287.136 494.732 216.937 481.626 166.662 439.788C139.044 416.812 118.855 384.764 109.808 350.009C102.645 322.444 107.553 291.935 98.7185 265.033C89.539 237.097 60.7272 225.901 42.2622 205.473C20.9054 181.834 9.44435 149.229 15.8381 117.578C16.8728 112.564 18.332 107.629 20.1626 102.827Z" fill="#A862E2"/>
</g>
<path d="M20.0036 180.932C8.25076 238.476 18.1996 300.053 45.4461 352.45C136.896 528.107 383.627 463.32 444.381 297.718C454.887 269.066 459.423 234.948 442.365 209.638C423.21 181.224 384.449 174.433 350.199 175.096C315.948 175.759 280.106 181.039 248.641 167.482C195.979 144.745 173.773 83.1686 107.792 89.3236C55.5541 94.2317 29.7137 133.47 20.0036 180.932Z" fill="#F29111"/>
<path d="M245.457 94.1507C242.433 99.3241 240.682 105.161 240.788 111.157C241 123.52 249.304 134.981 260.314 140.605C283.263 152.331 311.65 140.738 327.276 122.167C335.235 112.722 339.241 98.8996 333.988 87.7303C330.46 80.1692 323.164 74.8101 315.258 72.1836C307.326 69.5572 298.783 69.4245 290.479 70.2204C278.726 71.3347 266.84 74.4122 257.236 81.2835C252.488 84.7059 248.402 89.1365 245.457 94.1507Z" fill="#F29111"/>
<g filter="url(#filter1_d_2187_1959)">
<path d="M434.803 11.3254C418.116 9.25602 396.6 17.2947 388.64 32.921C375.853 58.0185 402.144 76.006 421.724 86.1406C439.923 95.5588 455.205 108.903 469.69 123.256C480.17 133.63 490.516 154.27 505.851 158.09C559.389 171.409 510.441 78.9509 502.959 67.1715C487.731 43.1616 465.074 15.0661 434.803 11.3254Z" fill="#F29111"/>
</g>
<path d="M230.998 66.3748C232.59 57.1953 224.604 47.4853 215.133 48.0424C207.094 48.52 199.958 55.8423 200.064 63.881C200.17 71.5482 206.749 78.6052 214.39 79.2154C222.057 79.8256 229.671 73.9359 230.998 66.3748Z" fill="#A862E2"/>
<path d="M142.838 78.339C138.143 78.339 134.322 74.5187 134.322 69.8228C134.322 65.127 138.143 61.3066 142.838 61.3066C147.534 61.3066 151.355 65.127 151.355 69.8228C151.355 74.5187 147.534 78.339 142.838 78.339ZM142.838 63.2964C139.23 63.2964 136.312 66.2413 136.312 69.8228C136.312 73.4309 139.257 76.3493 142.838 76.3493C146.447 76.3493 149.365 73.4044 149.365 69.8228C149.365 66.2147 146.447 63.2964 142.838 63.2964Z" fill="white"/>
<path d="M8.5162 333.455C3.82035 333.455 0 329.635 0 324.939C0 320.243 3.82035 316.423 8.5162 316.423C13.212 316.423 17.0324 320.243 17.0324 324.939C17.0324 329.635 13.2386 333.455 8.5162 333.455ZM8.5162 318.386C4.90809 318.386 1.98977 321.331 1.98977 324.913C1.98977 328.521 4.93462 331.439 8.5162 331.439C12.1243 331.439 15.0426 328.494 15.0426 324.913C15.0692 321.331 12.1243 318.386 8.5162 318.386Z" fill="white"/>
<path d="M299.288 533.995C294.592 533.995 290.771 530.175 290.771 525.479C290.771 520.783 294.592 516.963 299.288 516.963C303.984 516.963 307.804 520.783 307.804 525.479C307.83 530.175 304.01 533.995 299.288 533.995ZM299.288 518.926C295.68 518.926 292.761 521.871 292.761 525.453C292.761 529.034 295.706 531.979 299.288 531.979C302.896 531.979 305.814 529.034 305.814 525.453C305.814 521.871 302.896 518.926 299.288 518.926Z" fill="white"/>
<path d="M347.864 157.319C343.168 157.319 339.348 153.499 339.348 148.803C339.348 144.107 343.168 140.287 347.864 140.287C352.56 140.287 356.38 144.107 356.38 148.803C356.407 153.499 352.56 157.319 347.864 157.319ZM347.864 142.277C344.256 142.277 341.337 145.222 341.337 148.803C341.337 152.411 344.282 155.33 347.864 155.33C351.472 155.33 354.39 152.385 354.39 148.803C354.417 145.195 351.472 142.277 347.864 142.277Z" fill="white"/>
<path d="M544.135 205.234C543.578 205.234 543.127 204.783 543.127 204.226V194.224C543.127 193.667 543.578 193.216 544.135 193.216C544.692 193.216 545.143 193.667 545.143 194.224V204.226C545.143 204.783 544.692 205.234 544.135 205.234Z" fill="white"/>
<path d="M549.149 200.219H539.147C538.59 200.219 538.139 199.768 538.139 199.211C538.139 198.654 538.59 198.203 539.147 198.203H549.149C549.706 198.203 550.157 198.654 550.157 199.211C550.13 199.795 549.679 200.219 549.149 200.219Z" fill="white"/>
<path d="M385.272 12.0143C384.715 12.0143 384.264 11.5633 384.264 11.0061V1.00424C384.264 0.447107 384.715 -0.00390625 385.272 -0.00390625C385.829 -0.00390625 386.28 0.447107 386.28 1.00424V11.0327C386.253 11.5633 385.802 12.0143 385.272 12.0143Z" fill="white"/>
<path d="M390.26 6.99969H380.258C379.701 6.99969 379.25 6.54868 379.25 5.99155C379.25 5.43441 379.701 4.9834 380.258 4.9834H390.26C390.817 4.9834 391.268 5.43441 391.268 5.99155C391.268 6.54868 390.817 6.99969 390.26 6.99969Z" fill="white"/>
<path d="M506.647 335.949C506.09 335.949 505.639 335.498 505.639 334.941V324.912C505.639 324.355 506.09 323.904 506.647 323.904C507.204 323.904 507.655 324.355 507.655 324.912V334.941C507.655 335.498 507.204 335.949 506.647 335.949Z" fill="white"/>
<path d="M511.662 330.934H501.66C501.103 330.934 500.652 330.483 500.652 329.926C500.652 329.369 501.103 328.918 501.66 328.918H511.662C512.219 328.918 512.671 329.369 512.671 329.926C512.671 330.483 512.219 330.934 511.662 330.934Z" fill="white"/>
<path d="M366.088 137.342C365.531 137.342 365.08 136.891 365.08 136.334V126.332C365.08 125.775 365.531 125.324 366.088 125.324C366.645 125.324 367.096 125.775 367.096 126.332V136.334C367.096 136.891 366.645 137.342 366.088 137.342Z" fill="white"/>
<path d="M371.104 132.329H361.102C360.545 132.329 360.094 131.878 360.094 131.321C360.094 130.764 360.545 130.312 361.102 130.312H371.104C371.661 130.312 372.112 130.764 372.112 131.321C372.112 131.878 371.661 132.329 371.104 132.329Z" fill="white"/>
<path d="M328.895 504.973C328.338 504.973 327.887 504.522 327.887 503.965V493.963C327.887 493.406 328.338 492.955 328.895 492.955C329.452 492.955 329.903 493.406 329.903 493.963V503.965C329.876 504.549 329.452 504.973 328.895 504.973Z" fill="white"/>
<path d="M333.908 499.986H323.907C323.349 499.986 322.898 499.535 322.898 498.978C322.898 498.421 323.349 497.97 323.907 497.97H333.908C334.466 497.97 334.917 498.421 334.917 498.978C334.917 499.535 334.439 499.986 333.908 499.986Z" fill="white"/>
<path d="M260.95 57.4596C260.392 57.4596 259.941 57.0086 259.941 56.4514V46.4496C259.941 45.8924 260.392 45.4414 260.95 45.4414C261.507 45.4414 261.958 45.8924 261.958 46.4496V56.4514C261.958 57.0086 261.507 57.4596 260.95 57.4596Z" fill="white"/>
<path d="M265.965 52.446H255.963C255.406 52.446 254.955 51.995 254.955 51.4378C254.955 50.8807 255.406 50.4297 255.963 50.4297H265.965C266.522 50.4297 266.973 50.8807 266.973 51.4378C266.973 51.995 266.522 52.446 265.965 52.446Z" fill="white"/>
</g>
<defs>
<filter id="filter0_d_2187_1959" x="-34.8531" y="26.039" width="642.381" height="555.674" filterUnits="userSpaceOnUse" color-interpolation-filters="sRGB">
<feFlood flood-opacity="0" result="BackgroundImageFix"/>
<feColorMatrix in="SourceAlpha" type="matrix" values="0 0 0 0 0 0 0 0 0 0 0 0 0 0 0 0 0 0 127 0" result="hardAlpha"/>
<feOffset dx="7.52697" dy="37.6349"/>
<feGaussianBlur stdDeviation="28.2261"/>
<feComposite in2="hardAlpha" operator="out"/>
<feColorMatrix type="matrix" values="0 0 0 0 0.219608 0 0 0 0 0.247059 0 0 0 0 0.6 0 0 0 0.24 0"/>
<feBlend mode="normal" in2="BackgroundImageFix" result="effect1_dropShadow_2187_1959"/>
<feBlend mode="normal" in="SourceGraphic" in2="effect1_dropShadow_2187_1959" result="shape"/>
</filter>
<filter id="filter1_d_2187_1959" x="360.803" y="-36.0387" width="239.4" height="242.482" filterUnits="userSpaceOnUse" color-interpolation-filters="sRGB">
<feFlood flood-opacity="0" result="BackgroundImageFix"/>
<feColorMatrix in="SourceAlpha" type="matrix" values="0 0 0 0 0 0 0 0 0 0 0 0 0 0 0 0 0 0 127 0" result="hardAlpha"/>
<feOffset dx="22.5809"/>
<feGaussianBlur stdDeviation="23.5218"/>
<feComposite in2="hardAlpha" operator="out"/>
<feColorMatrix type="matrix" values="0 0 0 0 0 0 0 0 0 0 0 0 0 0 0 0 0 0 0.12 0"/>
<feBlend mode="normal" in2="BackgroundImageFix" result="effect1_dropShadow_2187_1959"/>
<feBlend mode="normal" in="SourceGraphic" in2="effect1_dropShadow_2187_1959" result="shape"/>
</filter>
<linearGradient id="paint0_linear_2187_1959" x1="29.8023" y1="269.119" x2="508.135" y2="269.119" gradientUnits="userSpaceOnUse">
<stop stop-color="#E1EE58" stop-opacity="0.3"/>
<stop offset="0.1216" stop-color="#DAEA59" stop-opacity="0.3853"/>
<stop offset="0.304" stop-color="#C5E05A" stop-opacity="0.5131"/>
<stop offset="0.5245" stop-color="#A4CE5D" stop-opacity="0.6677"/>
<stop offset="0.7723" stop-color="#75B661" stop-opacity="0.8414"/>
<stop offset="0.9985" stop-color="#459D65"/>
</linearGradient>
<clipPath id="clip0_2187_1959">
<rect width="555.649" height="534" fill="white" transform="translate(0 -0.00390625)"/>
</clipPath>
</defs>
</svg>
