<svg width="516" height="496" viewBox="0 0 516 496" fill="none" xmlns="http://www.w3.org/2000/svg">
<g clip-path="url(#clip0_2187_3049)">
<g opacity="0.26">
<path d="M317.578 438.119C345.449 410.766 355.814 370.857 374.919 337.447C398.555 296.134 422.215 254.845 445.85 213.532C454.689 198.071 463.626 182.437 468.476 165.301C477.389 133.836 465.99 97.5706 446.614 72.0147C416.995 32.9176 360.196 15.4864 315.215 35.0349C287 47.2959 265.999 71.3253 241.969 90.5046C208.018 117.612 167.64 135.215 127.78 152.499C87.3534 170.028 48.084 182.265 34.3704 229.363C19.6475 279.884 29.8895 337.151 58.006 381.296C90.8003 432.727 146.885 466.384 207.575 471.8C243.471 475.001 281.066 468.058 309.724 445.112C312.482 442.871 315.092 440.532 317.578 438.119Z" fill="url(#paint0_linear_2187_3049)"/>
</g>
<g filter="url(#filter0_d_2187_3049)">
<path d="M18.7105 95.4286C46.9992 21.7892 155.624 25.7531 186.744 95.0593C196.199 116.11 198.094 141.198 213.482 158.383C234.114 181.403 270.798 180.787 299.973 170.644C329.148 160.5 355.714 142.749 385.997 136.618C438.931 125.909 482.853 171.727 497.699 218.826C514.023 270.602 499.571 329.568 465.57 371.891C431.569 414.213 379.94 440.458 326.366 449.272C266.465 459.12 201.32 446.958 154.664 408.132C129.034 386.811 110.298 357.069 101.903 324.816C95.2551 299.236 99.8099 270.923 91.6113 245.957C83.0927 220.032 56.355 209.642 39.2192 190.685C19.3998 168.748 8.76383 138.49 14.6973 109.118C15.6575 104.464 17.0116 99.8849 18.7105 95.4286Z" fill="#383F99"/>
</g>
<path d="M18.5636 167.91C7.65676 221.312 16.8894 278.456 42.1745 327.081C127.041 490.092 356.01 429.969 412.391 276.289C422.14 249.699 426.35 218.037 410.52 194.549C392.744 168.181 356.773 161.878 324.988 162.494C293.204 163.109 259.942 168.009 230.742 155.428C181.87 134.328 161.263 77.1843 100.032 82.8962C51.5549 87.4509 27.5746 123.864 18.5636 167.91Z" fill="#A4CF0E"/>
<path d="M227.787 87.3776C224.98 92.1786 223.355 97.595 223.453 103.159C223.65 114.632 231.357 125.268 241.574 130.488C262.871 141.37 289.214 130.611 303.716 113.377C311.102 104.612 314.82 91.7846 309.945 81.4195C306.67 74.4027 299.9 69.4294 292.563 66.9919C285.201 64.5545 277.274 64.4314 269.567 65.17C258.661 66.2041 247.631 69.0601 238.718 75.4367C234.311 78.6128 230.519 82.7244 227.787 87.3776Z" fill="#A4CF0E"/>
<path d="M403.503 10.5132C388.016 8.59285 368.049 16.0528 360.663 30.5542C348.796 53.8451 373.195 70.5377 391.365 79.9426C408.254 88.6829 422.436 101.067 435.878 114.387C445.603 124.013 455.205 143.168 469.436 146.713C519.12 159.072 473.695 73.2705 466.752 62.3391C452.62 40.0577 431.594 13.9847 403.503 10.5132Z" fill="#A4CF0E"/>
<path d="M214.369 61.6003C215.846 53.0817 208.435 44.0706 199.646 44.5877C192.186 45.0308 185.563 51.826 185.661 59.286C185.76 66.4013 191.866 72.9503 198.956 73.5166C206.072 74.0828 213.138 68.6171 214.369 61.6003Z" fill="#383F99"/>
<path d="M132.555 72.7027C128.198 72.7027 124.652 69.1574 124.652 64.7996C124.652 60.4418 128.198 56.8965 132.555 56.8965C136.913 56.8965 140.459 60.4418 140.459 64.7996C140.459 69.1574 136.913 72.7027 132.555 72.7027ZM132.555 58.743C129.207 58.743 126.499 61.4759 126.499 64.7996C126.499 68.148 129.232 70.8562 132.555 70.8562C135.904 70.8562 138.612 68.1234 138.612 64.7996C138.612 61.4512 135.904 58.743 132.555 58.743Z" fill="white"/>
<path d="M7.90313 309.453C3.54533 309.453 0 305.907 0 301.55C0 297.192 3.54533 293.646 7.90313 293.646C12.2609 293.646 15.8063 297.192 15.8063 301.55C15.8063 305.907 12.2856 309.453 7.90313 309.453ZM7.90313 295.468C4.55477 295.468 1.84653 298.201 1.84653 301.525C1.84653 304.873 4.57939 307.582 7.90313 307.582C11.2515 307.582 13.9597 304.849 13.9597 301.525C13.9844 298.201 11.2515 295.468 7.90313 295.468Z" fill="white"/>
<path d="M277.743 495.557C273.385 495.557 269.84 492.012 269.84 487.654C269.84 483.296 273.385 479.751 277.743 479.751C282.101 479.751 285.646 483.296 285.646 487.654C285.671 492.012 282.125 495.557 277.743 495.557ZM277.743 481.573C274.395 481.573 271.686 484.306 271.686 487.629C271.686 490.953 274.419 493.686 277.743 493.686C281.091 493.686 283.8 490.953 283.8 487.629C283.8 484.306 281.091 481.573 277.743 481.573Z" fill="white"/>
<path d="M322.823 145.998C318.465 145.998 314.92 142.452 314.92 138.095C314.92 133.737 318.465 130.191 322.823 130.191C327.181 130.191 330.726 133.737 330.726 138.095C330.751 142.452 327.181 145.998 322.823 145.998ZM322.823 132.038C319.475 132.038 316.766 134.771 316.766 138.095C316.766 141.443 319.499 144.151 322.823 144.151C326.171 144.151 328.88 141.418 328.88 138.095C328.904 134.746 326.171 132.038 322.823 132.038Z" fill="white"/>
<path d="M504.963 190.464C504.446 190.464 504.027 190.045 504.027 189.528V180.246C504.027 179.729 504.446 179.311 504.963 179.311C505.48 179.311 505.898 179.729 505.898 180.246V189.528C505.898 190.045 505.48 190.464 504.963 190.464Z" fill="white"/>
<path d="M509.616 185.81H500.334C499.817 185.81 499.398 185.391 499.398 184.874C499.398 184.357 499.817 183.938 500.334 183.938H509.616C510.133 183.938 510.551 184.357 510.551 184.874C510.527 185.416 510.108 185.81 509.616 185.81Z" fill="white"/>
<path d="M357.537 11.153C357.02 11.153 356.602 10.7345 356.602 10.2174V0.935573C356.602 0.418546 357.02 0 357.537 0C358.054 0 358.473 0.418546 358.473 0.935573V10.2421C358.448 10.7345 358.03 11.153 357.537 11.153Z" fill="white"/>
<path d="M362.165 6.49908H352.883C352.366 6.49908 351.947 6.08053 351.947 5.5635C351.947 5.04648 352.366 4.62793 352.883 4.62793H362.165C362.682 4.62793 363.1 5.04648 363.1 5.5635C363.1 6.08053 362.682 6.49908 362.165 6.49908Z" fill="white"/>
<path d="M470.176 311.767C469.659 311.767 469.24 311.349 469.24 310.832V301.525C469.24 301.008 469.659 300.59 470.176 300.59C470.693 300.59 471.111 301.008 471.111 301.525V310.832C471.111 311.349 470.693 311.767 470.176 311.767Z" fill="white"/>
<path d="M474.829 307.114H465.547C465.03 307.114 464.611 306.696 464.611 306.179C464.611 305.662 465.03 305.243 465.547 305.243H474.829C475.346 305.243 475.764 305.662 475.764 306.179C475.764 306.696 475.346 307.114 474.829 307.114Z" fill="white"/>
<path d="M339.736 127.46C339.219 127.46 338.801 127.041 338.801 126.524V117.242C338.801 116.725 339.219 116.307 339.736 116.307C340.253 116.307 340.672 116.725 340.672 117.242V126.524C340.672 127.041 340.253 127.46 339.736 127.46Z" fill="white"/>
<path d="M344.389 122.806H335.107C334.59 122.806 334.172 122.387 334.172 121.87C334.172 121.353 334.59 120.935 335.107 120.935H344.389C344.906 120.935 345.325 121.353 345.325 121.87C345.325 122.387 344.906 122.806 344.389 122.806Z" fill="white"/>
<path d="M305.219 468.624C304.702 468.624 304.283 468.205 304.283 467.688V458.406C304.283 457.889 304.702 457.471 305.219 457.471C305.736 457.471 306.154 457.889 306.154 458.406V467.688C306.13 468.23 305.736 468.624 305.219 468.624Z" fill="white"/>
<path d="M309.872 463.994H300.59C300.073 463.994 299.654 463.576 299.654 463.059C299.654 462.542 300.073 462.123 300.59 462.123H309.872C310.389 462.123 310.807 462.542 310.807 463.059C310.807 463.576 310.364 463.994 309.872 463.994Z" fill="white"/>
<path d="M242.166 53.3278C241.649 53.3278 241.23 52.9093 241.23 52.3923V43.1104C241.23 42.5934 241.649 42.1748 242.166 42.1748C242.683 42.1748 243.102 42.5934 243.102 43.1104V52.3923C243.102 52.9093 242.683 53.3278 242.166 53.3278Z" fill="white"/>
<path d="M246.819 48.6739H237.537C237.02 48.6739 236.602 48.2553 236.602 47.7383C236.602 47.2213 237.02 46.8027 237.537 46.8027H246.819C247.336 46.8027 247.755 47.2213 247.755 47.7383C247.755 48.2553 247.336 48.6739 246.819 48.6739Z" fill="white"/>
</g>
<defs>
<filter id="filter0_d_2187_3049" x="-38.9414" y="-2.36914" width="611.361" height="530.896" filterUnits="userSpaceOnUse" color-interpolation-filters="sRGB">
<feFlood flood-opacity="0" result="BackgroundImageFix"/>
<feColorMatrix in="SourceAlpha" type="matrix" values="0 0 0 0 0 0 0 0 0 0 0 0 0 0 0 0 0 0 127 0" result="hardAlpha"/>
<feOffset dx="8" dy="16"/>
<feGaussianBlur stdDeviation="30"/>
<feComposite in2="hardAlpha" operator="out"/>
<feColorMatrix type="matrix" values="0 0 0 0 0.901961 0 0 0 0 0.290196 0 0 0 0 0.345098 0 0 0 0.24 0"/>
<feBlend mode="normal" in2="BackgroundImageFix" result="effect1_dropShadow_2187_3049"/>
<feBlend mode="normal" in="SourceGraphic" in2="effect1_dropShadow_2187_3049" result="shape"/>
</filter>
<linearGradient id="paint0_linear_2187_3049" x1="27.6565" y1="249.749" x2="471.555" y2="249.749" gradientUnits="userSpaceOnUse">
<stop stop-color="#E1EE58" stop-opacity="0.3"/>
<stop offset="0.1216" stop-color="#DAEA59" stop-opacity="0.3853"/>
<stop offset="0.304" stop-color="#C5E05A" stop-opacity="0.5131"/>
<stop offset="0.5245" stop-color="#A4CE5D" stop-opacity="0.6677"/>
<stop offset="0.7723" stop-color="#75B661" stop-opacity="0.8414"/>
<stop offset="0.9985" stop-color="#459D65"/>
</linearGradient>
<clipPath id="clip0_2187_3049">
<rect width="515.649" height="495.558" fill="white"/>
</clipPath>
</defs>
</svg>
