<svg width="556" height="535" viewBox="0 0 556 535" fill="none" xmlns="http://www.w3.org/2000/svg">
<g opacity="0.26">
<path d="M342.214 472.664C372.246 443.189 383.415 400.184 404.003 364.182C429.472 319.664 454.967 275.173 480.436 230.655C489.961 213.995 499.591 197.148 504.818 178.683C514.422 144.777 502.138 105.698 481.259 78.1599C449.343 36.0299 388.138 17.2465 339.667 38.3115C309.264 51.5235 286.633 77.417 260.74 98.084C224.155 127.294 180.645 146.263 137.693 164.887C94.1301 183.777 51.8145 196.962 37.0371 247.714C21.1721 302.154 32.2086 363.864 62.5061 411.432C97.8444 466.854 158.28 503.121 223.677 508.957C262.358 512.406 302.87 504.925 333.751 480.199C336.722 477.784 339.535 475.264 342.214 472.664Z" fill="url(#paint0_linear_2187_4393)"/>
</g>
<g filter="url(#filter0_d_2187_4393)">
<path d="M20.1626 103.39C50.6458 24.0381 167.697 28.3095 201.231 102.992C211.419 125.675 213.462 152.71 230.043 171.228C252.275 196.033 291.805 195.37 323.244 184.44C354.682 173.509 383.308 154.381 415.94 147.775C472.98 136.234 520.31 185.607 536.308 236.359C553.897 292.152 538.324 355.692 501.686 401.298C465.048 446.903 409.414 475.184 351.684 484.682C287.136 495.294 216.937 482.188 166.662 440.35C139.044 417.375 118.855 385.326 109.808 350.572C102.645 323.007 107.553 292.497 98.7185 265.596C89.539 237.659 60.7272 226.464 42.2622 206.035C20.9054 182.397 9.44435 149.791 15.8381 118.141C16.8728 113.127 18.332 108.192 20.1626 103.39Z" fill="#A862E2"/>
</g>
<path d="M20.0036 181.495C8.25076 239.039 18.1996 300.616 45.4461 353.013C136.896 528.669 383.627 463.882 444.381 298.281C454.887 269.628 459.423 235.51 442.365 210.201C423.21 181.787 384.449 174.995 350.199 175.658C315.948 176.322 280.106 181.601 248.641 168.044C195.979 145.308 173.773 83.7311 107.792 89.8861C55.5541 94.7942 29.7137 134.032 20.0036 181.495Z" fill="#F29111"/>
<path d="M245.457 94.7132C242.433 99.8866 240.682 105.723 240.788 111.719C241 124.082 249.304 135.543 260.314 141.168C283.263 152.894 311.65 141.3 327.276 122.729C335.235 113.284 339.241 99.4621 333.988 88.2928C330.46 80.7317 323.164 75.3726 315.258 72.7461C307.326 70.1197 298.783 69.987 290.479 70.7829C278.726 71.8972 266.84 74.9747 257.236 81.846C252.488 85.2684 248.402 89.699 245.457 94.7132Z" fill="#F29111"/>
<g filter="url(#filter1_d_2187_4393)">
<path d="M434.803 11.8879C418.116 9.81852 396.6 17.8572 388.64 33.4835C375.853 58.581 402.144 76.5685 421.724 86.7031C439.923 96.1213 455.205 109.466 469.69 123.819C480.17 134.192 490.516 154.833 505.851 158.653C559.389 171.971 510.441 79.5134 502.959 67.734C487.731 43.7241 465.074 15.6286 434.803 11.8879Z" fill="#F29111"/>
</g>
<path d="M230.998 66.9373C232.59 57.7578 224.604 48.0478 215.133 48.6049C207.094 49.0825 199.958 56.4048 200.064 64.4435C200.17 72.1107 206.749 79.1677 214.39 79.7779C222.057 80.3881 229.671 74.4984 230.998 66.9373Z" fill="#A862E2"/>
<path d="M142.838 78.9015C138.143 78.9015 134.322 75.0812 134.322 70.3853C134.322 65.6895 138.143 61.8691 142.838 61.8691C147.534 61.8691 151.355 65.6895 151.355 70.3853C151.355 75.0812 147.534 78.9015 142.838 78.9015ZM142.838 63.8589C139.23 63.8589 136.312 66.8038 136.312 70.3853C136.312 73.9934 139.257 76.9118 142.838 76.9118C146.447 76.9118 149.365 73.9669 149.365 70.3853C149.365 66.7772 146.447 63.8589 142.838 63.8589Z" fill="white"/>
<path d="M8.5162 334.018C3.82035 334.018 0 330.197 0 325.502C0 320.806 3.82035 316.985 8.5162 316.985C13.212 316.985 17.0324 320.806 17.0324 325.502C17.0324 330.197 13.2386 334.018 8.5162 334.018ZM8.5162 318.949C4.90809 318.949 1.98977 321.893 1.98977 325.475C1.98977 329.083 4.93462 332.001 8.5162 332.001C12.1243 332.001 15.0426 329.057 15.0426 325.475C15.0692 321.893 12.1243 318.949 8.5162 318.949Z" fill="white"/>
<path d="M299.288 534.558C294.592 534.558 290.771 530.737 290.771 526.042C290.771 521.346 294.592 517.525 299.288 517.525C303.984 517.525 307.804 521.346 307.804 526.042C307.83 530.737 304.01 534.558 299.288 534.558ZM299.288 519.489C295.68 519.489 292.761 522.433 292.761 526.015C292.761 529.597 295.706 532.541 299.288 532.541C302.896 532.541 305.814 529.597 305.814 526.015C305.814 522.433 302.896 519.489 299.288 519.489Z" fill="white"/>
<path d="M347.864 157.882C343.168 157.882 339.348 154.062 339.348 149.366C339.348 144.67 343.168 140.85 347.864 140.85C352.56 140.85 356.38 144.67 356.38 149.366C356.407 154.062 352.56 157.882 347.864 157.882ZM347.864 142.839C344.256 142.839 341.337 145.784 341.337 149.366C341.337 152.974 344.282 155.892 347.864 155.892C351.472 155.892 354.39 152.947 354.39 149.366C354.417 145.758 351.472 142.839 347.864 142.839Z" fill="white"/>
<path d="M544.135 205.797C543.578 205.797 543.127 205.345 543.127 204.788V194.786C543.127 194.229 543.578 193.778 544.135 193.778C544.692 193.778 545.143 194.229 545.143 194.786V204.788C545.143 205.345 544.692 205.797 544.135 205.797Z" fill="white"/>
<path d="M549.149 200.782H539.147C538.59 200.782 538.139 200.331 538.139 199.774C538.139 199.217 538.59 198.766 539.147 198.766H549.149C549.706 198.766 550.157 199.217 550.157 199.774C550.13 200.357 549.679 200.782 549.149 200.782Z" fill="white"/>
<path d="M385.272 12.5768C384.715 12.5768 384.264 12.1258 384.264 11.5686V1.56674C384.264 1.00961 384.715 0.558594 385.272 0.558594C385.829 0.558594 386.28 1.00961 386.28 1.56674V11.5952C386.253 12.1258 385.802 12.5768 385.272 12.5768Z" fill="white"/>
<path d="M390.26 7.56219H380.258C379.701 7.56219 379.25 7.11118 379.25 6.55405C379.25 5.99691 379.701 5.5459 380.258 5.5459H390.26C390.817 5.5459 391.268 5.99691 391.268 6.55405C391.268 7.11118 390.817 7.56219 390.26 7.56219Z" fill="white"/>
<path d="M506.647 336.512C506.09 336.512 505.639 336.061 505.639 335.503V325.475C505.639 324.918 506.09 324.467 506.647 324.467C507.204 324.467 507.655 324.918 507.655 325.475V335.503C507.655 336.061 507.204 336.512 506.647 336.512Z" fill="white"/>
<path d="M511.662 331.497H501.66C501.103 331.497 500.652 331.046 500.652 330.489C500.652 329.931 501.103 329.48 501.66 329.48H511.662C512.219 329.48 512.671 329.931 512.671 330.489C512.671 331.046 512.219 331.497 511.662 331.497Z" fill="white"/>
<path d="M366.088 137.905C365.531 137.905 365.08 137.454 365.08 136.897V126.895C365.08 126.338 365.531 125.887 366.088 125.887C366.645 125.887 367.096 126.338 367.096 126.895V136.897C367.096 137.454 366.645 137.905 366.088 137.905Z" fill="white"/>
<path d="M371.104 132.891H361.102C360.545 132.891 360.094 132.44 360.094 131.883C360.094 131.326 360.545 130.875 361.102 130.875H371.104C371.661 130.875 372.112 131.326 372.112 131.883C372.112 132.44 371.661 132.891 371.104 132.891Z" fill="white"/>
<path d="M328.895 505.536C328.338 505.536 327.887 505.085 327.887 504.528V494.526C327.887 493.969 328.338 493.518 328.895 493.518C329.452 493.518 329.903 493.969 329.903 494.526V504.528C329.876 505.111 329.452 505.536 328.895 505.536Z" fill="white"/>
<path d="M333.908 500.549H323.907C323.349 500.549 322.898 500.098 322.898 499.54C322.898 498.983 323.349 498.532 323.907 498.532H333.908C334.466 498.532 334.917 498.983 334.917 499.54C334.917 500.098 334.439 500.549 333.908 500.549Z" fill="white"/>
<path d="M260.95 58.0221C260.392 58.0221 259.941 57.5711 259.941 57.0139V47.0121C259.941 46.4549 260.392 46.0039 260.95 46.0039C261.507 46.0039 261.958 46.4549 261.958 47.0121V57.0139C261.958 57.5711 261.507 58.0221 260.95 58.0221Z" fill="white"/>
<path d="M265.965 53.0085H255.963C255.406 53.0085 254.955 52.5575 254.955 52.0003C254.955 51.4432 255.406 50.9922 255.963 50.9922H265.965C266.522 50.9922 266.973 51.4432 266.973 52.0003C266.973 52.5575 266.522 53.0085 265.965 53.0085Z" fill="white"/>
<defs>
<filter id="filter0_d_2187_4393" x="-34.8531" y="26.6015" width="642.381" height="555.674" filterUnits="userSpaceOnUse" color-interpolation-filters="sRGB">
<feFlood flood-opacity="0" result="BackgroundImageFix"/>
<feColorMatrix in="SourceAlpha" type="matrix" values="0 0 0 0 0 0 0 0 0 0 0 0 0 0 0 0 0 0 127 0" result="hardAlpha"/>
<feOffset dx="7.52697" dy="37.6349"/>
<feGaussianBlur stdDeviation="28.2261"/>
<feComposite in2="hardAlpha" operator="out"/>
<feColorMatrix type="matrix" values="0 0 0 0 0.219608 0 0 0 0 0.247059 0 0 0 0 0.6 0 0 0 0.24 0"/>
<feBlend mode="normal" in2="BackgroundImageFix" result="effect1_dropShadow_2187_4393"/>
<feBlend mode="normal" in="SourceGraphic" in2="effect1_dropShadow_2187_4393" result="shape"/>
</filter>
<filter id="filter1_d_2187_4393" x="360.803" y="-35.4762" width="239.4" height="242.482" filterUnits="userSpaceOnUse" color-interpolation-filters="sRGB">
<feFlood flood-opacity="0" result="BackgroundImageFix"/>
<feColorMatrix in="SourceAlpha" type="matrix" values="0 0 0 0 0 0 0 0 0 0 0 0 0 0 0 0 0 0 127 0" result="hardAlpha"/>
<feOffset dx="22.5809"/>
<feGaussianBlur stdDeviation="23.5218"/>
<feComposite in2="hardAlpha" operator="out"/>
<feColorMatrix type="matrix" values="0 0 0 0 0 0 0 0 0 0 0 0 0 0 0 0 0 0 0.12 0"/>
<feBlend mode="normal" in2="BackgroundImageFix" result="effect1_dropShadow_2187_4393"/>
<feBlend mode="normal" in="SourceGraphic" in2="effect1_dropShadow_2187_4393" result="shape"/>
</filter>
<linearGradient id="paint0_linear_2187_4393" x1="29.8023" y1="269.681" x2="508.135" y2="269.681" gradientUnits="userSpaceOnUse">
<stop stop-color="#E1EE58" stop-opacity="0.3"/>
<stop offset="0.1216" stop-color="#DAEA59" stop-opacity="0.3853"/>
<stop offset="0.304" stop-color="#C5E05A" stop-opacity="0.5131"/>
<stop offset="0.5245" stop-color="#A4CE5D" stop-opacity="0.6677"/>
<stop offset="0.7723" stop-color="#75B661" stop-opacity="0.8414"/>
<stop offset="0.9985" stop-color="#459D65"/>
</linearGradient>
</defs>
</svg>
