<svg width="556" height="534" viewBox="0 0 556 534" fill="none" xmlns="http://www.w3.org/2000/svg">
<g clip-path="url(#clip0_281_232)">
<g opacity="0.26">
<path d="M342.214 472.105C372.246 442.63 383.415 399.625 404.003 363.623C429.472 319.106 454.967 274.615 480.436 230.097C489.961 213.436 499.591 196.589 504.818 178.124C514.422 144.219 502.138 105.14 481.259 77.6013C449.343 35.4713 388.138 16.6879 339.667 37.7529C309.264 50.9649 286.633 76.8584 260.74 97.5254C224.155 126.735 180.645 145.704 137.693 164.329C94.1301 183.218 51.8145 196.404 37.0371 247.156C21.1721 301.596 32.2086 363.305 62.5061 410.874C97.8444 466.295 158.28 502.562 223.677 508.399C262.358 511.848 302.87 504.366 333.751 479.64C336.722 477.226 339.535 474.705 342.214 472.105Z" fill="url(#paint0_linear_281_232)"/>
</g>
<g filter="url(#filter0_d_281_232)">
<path d="M20.1626 102.831C50.6458 23.4795 167.697 27.7509 201.231 102.433C211.419 125.117 213.462 152.151 230.043 170.669C252.275 195.475 291.805 194.812 323.244 183.881C354.682 172.951 383.308 153.822 415.94 147.216C472.98 135.676 520.31 185.048 536.308 235.801C553.897 291.594 538.324 355.134 501.686 400.739C465.048 446.344 409.414 474.626 351.684 484.123C287.136 494.736 216.937 481.63 166.662 439.792C139.044 416.816 118.855 384.768 109.808 350.013C102.645 322.448 107.553 291.939 98.7185 265.037C89.539 237.101 60.7272 225.905 42.2622 205.477C20.9054 181.838 9.44435 149.233 15.8381 117.582C16.8728 112.568 18.332 107.633 20.1626 102.831Z" fill="#A862E2"/>
</g>
<path d="M20.0036 180.936C8.25076 238.48 18.1996 300.057 45.4461 352.454C136.896 528.111 383.627 463.324 444.381 297.722C454.887 269.07 459.423 234.952 442.365 209.642C423.21 181.228 384.449 174.436 350.199 175.1C315.948 175.763 280.106 181.042 248.641 167.486C195.979 144.749 173.773 83.1725 107.792 89.3275C55.5541 94.2356 29.7137 133.474 20.0036 180.936Z" fill="#F29111"/>
<path d="M245.457 94.1546C242.433 99.328 240.682 105.165 240.788 111.16C241 123.524 249.304 134.985 260.314 140.609C283.263 152.335 311.65 140.742 327.276 122.17C335.235 112.726 339.241 98.9035 333.988 87.7343C330.46 80.1731 323.164 74.814 315.258 72.1876C307.326 69.5611 298.783 69.4284 290.479 70.2243C278.726 71.3386 266.84 74.4161 257.236 81.2874C252.488 84.7098 248.402 89.1404 245.457 94.1546Z" fill="#F29111"/>
<g filter="url(#filter1_d_281_232)">
<path d="M434.803 11.3293C418.116 9.25992 396.6 17.2986 388.64 32.9249C375.853 58.0224 402.144 76.0099 421.724 86.1445C439.923 95.5627 455.205 108.907 469.69 123.26C480.17 133.634 490.516 154.274 505.851 158.094C559.389 171.413 510.441 78.9548 502.959 67.1754C487.731 43.1655 465.074 15.07 434.803 11.3293Z" fill="#F29111"/>
</g>
<path d="M230.998 66.3787C232.59 57.1993 224.604 47.4892 215.133 48.0463C207.094 48.5239 199.958 55.8462 200.064 63.8849C200.17 71.5521 206.749 78.6091 214.39 79.2193C222.057 79.8295 229.671 73.9398 230.998 66.3787Z" fill="#A862E2"/>
<path d="M142.838 78.3429C138.143 78.3429 134.322 74.5226 134.322 69.8267C134.322 65.1309 138.143 61.3105 142.838 61.3105C147.534 61.3105 151.355 65.1309 151.355 69.8267C151.355 74.5226 147.534 78.3429 142.838 78.3429ZM142.838 63.3003C139.23 63.3003 136.312 66.2452 136.312 69.8267C136.312 73.4348 139.257 76.3532 142.838 76.3532C146.447 76.3532 149.365 73.4083 149.365 69.8267C149.365 66.2186 146.447 63.3003 142.838 63.3003Z" fill="white"/>
<path d="M8.5162 333.459C3.82035 333.459 0 329.639 0 324.943C0 320.247 3.82035 316.427 8.5162 316.427C13.212 316.427 17.0324 320.247 17.0324 324.943C17.0324 329.639 13.2386 333.459 8.5162 333.459ZM8.5162 318.39C4.90809 318.39 1.98977 321.335 1.98977 324.916C1.98977 328.525 4.93462 331.443 8.5162 331.443C12.1243 331.443 15.0426 328.498 15.0426 324.916C15.0692 321.335 12.1243 318.39 8.5162 318.39Z" fill="white"/>
<path d="M299.288 533.999C294.592 533.999 290.771 530.179 290.771 525.483C290.771 520.787 294.592 516.967 299.288 516.967C303.984 516.967 307.804 520.787 307.804 525.483C307.83 530.179 304.01 533.999 299.288 533.999ZM299.288 518.93C295.68 518.93 292.761 521.875 292.761 525.456C292.761 529.038 295.706 531.983 299.288 531.983C302.896 531.983 305.814 529.038 305.814 525.456C305.814 521.875 302.896 518.93 299.288 518.93Z" fill="white"/>
<path d="M347.864 157.323C343.168 157.323 339.348 153.503 339.348 148.807C339.348 144.111 343.168 140.291 347.864 140.291C352.56 140.291 356.38 144.111 356.38 148.807C356.407 153.503 352.56 157.323 347.864 157.323ZM347.864 142.281C344.256 142.281 341.337 145.226 341.337 148.807C341.337 152.415 344.282 155.334 347.864 155.334C351.472 155.334 354.39 152.389 354.39 148.807C354.417 145.199 351.472 142.281 347.864 142.281Z" fill="white"/>
<path d="M544.135 205.238C543.578 205.238 543.127 204.787 543.127 204.23V194.228C543.127 193.671 543.578 193.22 544.135 193.22C544.692 193.22 545.143 193.671 545.143 194.228V204.23C545.143 204.787 544.692 205.238 544.135 205.238Z" fill="white"/>
<path d="M549.149 200.223H539.147C538.59 200.223 538.139 199.772 538.139 199.215C538.139 198.658 538.59 198.207 539.147 198.207H549.149C549.706 198.207 550.157 198.658 550.157 199.215C550.13 199.799 549.679 200.223 549.149 200.223Z" fill="white"/>
<path d="M385.272 12.0182C384.715 12.0182 384.264 11.5672 384.264 11.01V1.00815C384.264 0.451014 384.715 0 385.272 0C385.829 0 386.28 0.451014 386.28 1.00815V11.0366C386.253 11.5672 385.802 12.0182 385.272 12.0182Z" fill="white"/>
<path d="M390.26 7.0036H380.258C379.701 7.0036 379.25 6.55259 379.25 5.99545C379.25 5.43832 379.701 4.9873 380.258 4.9873H390.26C390.817 4.9873 391.268 5.43832 391.268 5.99545C391.268 6.55259 390.817 7.0036 390.26 7.0036Z" fill="white"/>
<path d="M506.647 335.953C506.09 335.953 505.639 335.502 505.639 334.945V324.916C505.639 324.359 506.09 323.908 506.647 323.908C507.204 323.908 507.655 324.359 507.655 324.916V334.945C507.655 335.502 507.204 335.953 506.647 335.953Z" fill="white"/>
<path d="M511.662 330.938H501.66C501.103 330.938 500.652 330.487 500.652 329.93C500.652 329.373 501.103 328.922 501.66 328.922H511.662C512.219 328.922 512.671 329.373 512.671 329.93C512.671 330.487 512.219 330.938 511.662 330.938Z" fill="white"/>
<path d="M366.088 137.346C365.531 137.346 365.08 136.895 365.08 136.338V126.336C365.08 125.779 365.531 125.328 366.088 125.328C366.645 125.328 367.096 125.779 367.096 126.336V136.338C367.096 136.895 366.645 137.346 366.088 137.346Z" fill="white"/>
<path d="M371.104 132.333H361.102C360.545 132.333 360.094 131.882 360.094 131.325C360.094 130.767 360.545 130.316 361.102 130.316H371.104C371.661 130.316 372.112 130.767 372.112 131.325C372.112 131.882 371.661 132.333 371.104 132.333Z" fill="white"/>
<path d="M328.895 504.977C328.338 504.977 327.887 504.526 327.887 503.969V493.967C327.887 493.41 328.338 492.959 328.895 492.959C329.452 492.959 329.903 493.41 329.903 493.967V503.969C329.876 504.553 329.452 504.977 328.895 504.977Z" fill="white"/>
<path d="M333.908 499.99H323.907C323.349 499.99 322.898 499.539 322.898 498.982C322.898 498.425 323.349 497.974 323.907 497.974H333.908C334.466 497.974 334.917 498.425 334.917 498.982C334.917 499.539 334.439 499.99 333.908 499.99Z" fill="white"/>
<path d="M260.95 57.4635C260.392 57.4635 259.941 57.0125 259.941 56.4554V46.4535C259.941 45.8963 260.392 45.4453 260.95 45.4453C261.507 45.4453 261.958 45.8963 261.958 46.4535V56.4554C261.958 57.0125 261.507 57.4635 260.95 57.4635Z" fill="white"/>
<path d="M265.965 52.4499H255.963C255.406 52.4499 254.955 51.9989 254.955 51.4417C254.955 50.8846 255.406 50.4336 255.963 50.4336H265.965C266.522 50.4336 266.973 50.8846 266.973 51.4417C266.973 51.9989 266.522 52.4499 265.965 52.4499Z" fill="white"/>
</g>
<defs>
<filter id="filter0_d_281_232" x="-34.8531" y="26.0429" width="642.381" height="555.675" filterUnits="userSpaceOnUse" color-interpolation-filters="sRGB">
<feFlood flood-opacity="0" result="BackgroundImageFix"/>
<feColorMatrix in="SourceAlpha" type="matrix" values="0 0 0 0 0 0 0 0 0 0 0 0 0 0 0 0 0 0 127 0" result="hardAlpha"/>
<feOffset dx="7.52697" dy="37.6349"/>
<feGaussianBlur stdDeviation="28.2261"/>
<feComposite in2="hardAlpha" operator="out"/>
<feColorMatrix type="matrix" values="0 0 0 0 0.219608 0 0 0 0 0.247059 0 0 0 0 0.6 0 0 0 0.24 0"/>
<feBlend mode="normal" in2="BackgroundImageFix" result="effect1_dropShadow_281_232"/>
<feBlend mode="normal" in="SourceGraphic" in2="effect1_dropShadow_281_232" result="shape"/>
</filter>
<filter id="filter1_d_281_232" x="360.803" y="-36.0348" width="239.401" height="242.481" filterUnits="userSpaceOnUse" color-interpolation-filters="sRGB">
<feFlood flood-opacity="0" result="BackgroundImageFix"/>
<feColorMatrix in="SourceAlpha" type="matrix" values="0 0 0 0 0 0 0 0 0 0 0 0 0 0 0 0 0 0 127 0" result="hardAlpha"/>
<feOffset dx="22.5809"/>
<feGaussianBlur stdDeviation="23.5218"/>
<feComposite in2="hardAlpha" operator="out"/>
<feColorMatrix type="matrix" values="0 0 0 0 0 0 0 0 0 0 0 0 0 0 0 0 0 0 0.12 0"/>
<feBlend mode="normal" in2="BackgroundImageFix" result="effect1_dropShadow_281_232"/>
<feBlend mode="normal" in="SourceGraphic" in2="effect1_dropShadow_281_232" result="shape"/>
</filter>
<linearGradient id="paint0_linear_281_232" x1="29.8023" y1="269.123" x2="508.135" y2="269.123" gradientUnits="userSpaceOnUse">
<stop stop-color="#E1EE58" stop-opacity="0.3"/>
<stop offset="0.1216" stop-color="#DAEA59" stop-opacity="0.3853"/>
<stop offset="0.304" stop-color="#C5E05A" stop-opacity="0.5131"/>
<stop offset="0.5245" stop-color="#A4CE5D" stop-opacity="0.6677"/>
<stop offset="0.7723" stop-color="#75B661" stop-opacity="0.8414"/>
<stop offset="0.9985" stop-color="#459D65"/>
</linearGradient>
<clipPath id="clip0_281_232">
<rect width="555.649" height="534" fill="white"/>
</clipPath>
</defs>
</svg>
