<svg width="454" height="436" viewBox="0 0 454 436" fill="none" xmlns="http://www.w3.org/2000/svg">
<g clip-path="url(#clip0_280_164)">
<g opacity="0.26">
<path d="M279.058 384.978C303.548 360.943 312.656 325.874 329.444 296.516C350.212 260.214 371.003 223.934 391.771 187.632C399.538 174.046 407.391 160.308 411.653 145.251C419.485 117.603 409.468 85.7359 392.442 63.2798C366.416 28.9249 316.506 13.608 276.981 30.7854C252.188 41.5592 233.735 62.674 212.62 79.5269C182.786 103.346 147.307 118.814 112.281 134.001C76.758 149.405 42.2517 160.157 30.2015 201.543C17.2644 245.936 26.2641 296.257 50.9702 335.047C79.7867 380.24 129.069 409.814 182.397 414.573C213.939 417.386 246.975 411.285 272.157 391.122C274.58 389.153 276.873 387.098 279.058 384.978Z" fill="url(#paint0_linear_280_164)"/>
</g>
<g filter="url(#filter0_d_280_164)">
<path d="M16.4409 83.854C41.2985 19.1465 136.748 22.6296 164.093 83.5295C172.401 102.027 174.067 124.072 187.588 139.172C205.717 159.4 237.952 158.859 263.588 149.946C289.225 141.033 312.568 125.435 339.178 120.048C385.691 110.637 424.286 150.898 437.331 192.284C451.675 237.78 438.976 289.594 409.099 326.783C379.222 363.972 333.856 387.034 286.78 394.778C234.144 403.432 176.901 392.745 135.904 358.628C113.383 339.893 96.9196 313.759 89.5424 285.418C83.7012 262.941 87.7035 238.061 80.4993 216.125C73.014 193.344 49.5194 184.214 34.4621 167.556C17.0467 148.28 7.70077 121.692 12.9146 95.8825C13.7583 91.7937 14.9482 87.7697 16.4409 83.854Z" fill="#A4CF0E"/>
</g>
<path d="M16.3128 147.544C6.72896 194.469 14.8417 244.681 37.0599 287.408C111.632 430.647 312.829 377.817 362.371 242.777C370.938 219.413 374.638 191.591 360.727 170.952C345.107 147.782 313.5 142.244 285.57 142.785C257.641 143.326 228.413 147.631 202.755 136.576C159.811 118.035 141.704 67.8228 87.8999 72.8419C45.3025 76.8442 24.2309 108.841 16.3128 147.544Z" fill="#00CCFF"/>
<path d="M200.159 76.7783C197.693 80.9969 196.265 85.7564 196.351 90.6457C196.524 100.727 203.296 110.073 212.274 114.66C230.987 124.222 254.136 114.768 266.878 99.6239C273.369 91.9221 276.635 80.6508 272.352 71.5429C269.474 65.3772 263.525 61.0071 257.078 58.8653C250.61 56.7235 243.643 56.6154 236.872 57.2644C227.288 58.173 217.596 60.6826 209.764 66.2858C205.892 69.0766 202.56 72.6895 200.159 76.7783Z" fill="#00CCFF"/>
<g filter="url(#filter1_d_280_164)">
<path d="M354.559 9.2384C340.952 7.55094 323.406 14.1061 316.916 26.8485C306.488 47.3143 327.928 61.9822 343.894 70.2464C358.735 77.9265 371.196 88.8084 383.008 100.512C391.554 108.971 399.991 125.803 412.495 128.918C456.153 139.778 416.238 64.3836 410.137 54.7781C397.719 35.1993 379.244 12.2888 354.559 9.2384Z" fill="#00CCFF"/>
</g>
<path d="M188.367 54.1284C189.665 46.6431 183.153 38.725 175.43 39.1793C168.875 39.5687 163.055 45.5397 163.142 52.0948C163.228 58.3471 168.593 64.1017 174.824 64.5993C181.076 65.0969 187.285 60.2941 188.367 54.1284Z" fill="#A4CF0E"/>
<path d="M116.478 63.8847C112.649 63.8847 109.533 60.7694 109.533 56.9401C109.533 53.1109 112.649 49.9956 116.478 49.9956C120.307 49.9956 123.422 53.1109 123.422 56.9401C123.422 60.7694 120.307 63.8847 116.478 63.8847ZM116.478 51.6182C113.536 51.6182 111.156 54.0195 111.156 56.9401C111.156 59.8824 113.557 62.2621 116.478 62.2621C119.42 62.2621 121.8 59.8607 121.8 56.9401C121.8 53.9979 119.42 51.6182 116.478 51.6182Z" fill="white"/>
<path d="M6.94453 271.919C3.1153 271.919 0 268.804 0 264.975C0 261.146 3.1153 258.03 6.94453 258.03C10.7738 258.03 13.8891 261.146 13.8891 264.975C13.8891 268.804 10.7954 271.919 6.94453 271.919ZM6.94453 259.631C4.0023 259.631 1.62255 262.033 1.62255 264.953C1.62255 267.895 4.02393 270.275 6.94453 270.275C9.88676 270.275 12.2665 267.874 12.2665 264.953C12.2881 262.033 9.88676 259.631 6.94453 259.631Z" fill="white"/>
<path d="M244.054 435.45C240.225 435.45 237.109 432.334 237.109 428.505C237.109 424.676 240.225 421.561 244.054 421.561C247.883 421.561 250.998 424.676 250.998 428.505C251.02 432.334 247.905 435.45 244.054 435.45ZM244.054 423.161C241.112 423.161 238.732 425.563 238.732 428.483C238.732 431.404 241.133 433.805 244.054 433.805C246.996 433.805 249.376 431.404 249.376 428.483C249.376 425.563 246.996 423.161 244.054 423.161Z" fill="white"/>
<path d="M283.665 128.289C279.836 128.289 276.721 125.174 276.721 121.345C276.721 117.516 279.836 114.4 283.665 114.4C287.494 114.4 290.61 117.516 290.61 121.345C290.631 125.174 287.494 128.289 283.665 128.289ZM283.665 116.023C280.723 116.023 278.343 118.424 278.343 121.345C278.343 124.287 280.745 126.667 283.665 126.667C286.607 126.667 288.987 124.266 288.987 121.345C289.009 118.403 286.607 116.023 283.665 116.023Z" fill="white"/>
<path d="M443.713 167.361C443.258 167.361 442.891 166.993 442.891 166.539V158.383C442.891 157.929 443.258 157.561 443.713 157.561C444.167 157.561 444.535 157.929 444.535 158.383V166.539C444.535 166.993 444.167 167.361 443.713 167.361Z" fill="white"/>
<path d="M447.802 163.272H439.646C439.192 163.272 438.824 162.904 438.824 162.45C438.824 161.996 439.192 161.628 439.646 161.628H447.802C448.257 161.628 448.624 161.996 448.624 162.45C448.603 162.926 448.235 163.272 447.802 163.272Z" fill="white"/>
<path d="M314.168 9.80022C313.713 9.80022 313.346 9.43244 313.346 8.97813V0.822094C313.346 0.367779 313.713 0 314.168 0C314.622 0 314.99 0.367779 314.99 0.822094V8.99976C314.968 9.43244 314.6 9.80022 314.168 9.80022Z" fill="white"/>
<path d="M318.236 5.71108H310.08C309.626 5.71108 309.258 5.3433 309.258 4.88899C309.258 4.43467 309.626 4.06689 310.08 4.06689H318.236C318.69 4.06689 319.058 4.43467 319.058 4.88899C319.058 5.3433 318.69 5.71108 318.236 5.71108Z" fill="white"/>
<path d="M413.144 273.953C412.69 273.953 412.322 273.585 412.322 273.131V264.953C412.322 264.499 412.69 264.131 413.144 264.131C413.599 264.131 413.966 264.499 413.966 264.953V273.131C413.966 273.585 413.599 273.953 413.144 273.953Z" fill="white"/>
<path d="M417.234 269.863H409.078C408.624 269.863 408.256 269.496 408.256 269.041C408.256 268.587 408.624 268.219 409.078 268.219H417.234C417.688 268.219 418.056 268.587 418.056 269.041C418.056 269.496 417.688 269.863 417.234 269.863Z" fill="white"/>
<path d="M298.527 111.999C298.073 111.999 297.705 111.631 297.705 111.177V103.021C297.705 102.567 298.073 102.199 298.527 102.199C298.981 102.199 299.349 102.567 299.349 103.021V111.177C299.349 111.631 298.981 111.999 298.527 111.999Z" fill="white"/>
<path d="M302.617 107.911H294.461C294.006 107.911 293.639 107.543 293.639 107.089C293.639 106.634 294.006 106.267 294.461 106.267H302.617C303.071 106.267 303.439 106.634 303.439 107.089C303.439 107.543 303.071 107.911 302.617 107.911Z" fill="white"/>
<path d="M268.197 411.784C267.743 411.784 267.375 411.416 267.375 410.962V402.806C267.375 402.351 267.743 401.983 268.197 401.983C268.651 401.983 269.019 402.351 269.019 402.806V410.962C268.998 411.437 268.651 411.784 268.197 411.784Z" fill="white"/>
<path d="M272.287 407.716H264.131C263.676 407.716 263.309 407.349 263.309 406.894C263.309 406.44 263.676 406.072 264.131 406.072H272.287C272.741 406.072 273.109 406.44 273.109 406.894C273.109 407.349 272.719 407.716 272.287 407.716Z" fill="white"/>
<path d="M212.791 46.8583C212.337 46.8583 211.969 46.4906 211.969 46.0362V37.8802C211.969 37.4259 212.337 37.0581 212.791 37.0581C213.245 37.0581 213.613 37.4259 213.613 37.8802V46.0362C213.613 46.4906 213.245 46.8583 212.791 46.8583Z" fill="white"/>
<path d="M216.88 42.7702H208.724C208.27 42.7702 207.902 42.4024 207.902 41.9481C207.902 41.4938 208.27 41.126 208.724 41.126H216.88C217.335 41.126 217.703 41.4938 217.703 41.9481C217.703 42.4024 217.335 42.7702 216.88 42.7702Z" fill="white"/>
</g>
<defs>
<filter id="filter0_d_280_164" x="-37.4507" y="17.7641" width="544.666" height="473.961" filterUnits="userSpaceOnUse" color-interpolation-filters="sRGB">
<feFlood flood-opacity="0" result="BackgroundImageFix"/>
<feColorMatrix in="SourceAlpha" type="matrix" values="0 0 0 0 0 0 0 0 0 0 0 0 0 0 0 0 0 0 127 0" result="hardAlpha"/>
<feOffset dx="7.52697" dy="37.6349"/>
<feGaussianBlur stdDeviation="28.2261"/>
<feComposite in2="hardAlpha" operator="out"/>
<feColorMatrix type="matrix" values="0 0 0 0 0.219608 0 0 0 0 0.247059 0 0 0 0 0.6 0 0 0 0.24 0"/>
<feBlend mode="normal" in2="BackgroundImageFix" result="effect1_dropShadow_280_164"/>
<feBlend mode="normal" in="SourceGraphic" in2="effect1_dropShadow_280_164" result="shape"/>
</filter>
<filter id="filter1_d_280_164" x="289.701" y="-38.0665" width="212.583" height="215.095" filterUnits="userSpaceOnUse" color-interpolation-filters="sRGB">
<feFlood flood-opacity="0" result="BackgroundImageFix"/>
<feColorMatrix in="SourceAlpha" type="matrix" values="0 0 0 0 0 0 0 0 0 0 0 0 0 0 0 0 0 0 127 0" result="hardAlpha"/>
<feOffset dx="22.5809"/>
<feGaussianBlur stdDeviation="23.5218"/>
<feComposite in2="hardAlpha" operator="out"/>
<feColorMatrix type="matrix" values="0 0 0 0 0 0 0 0 0 0 0 0 0 0 0 0 0 0 0.12 0"/>
<feBlend mode="normal" in2="BackgroundImageFix" result="effect1_dropShadow_280_164"/>
<feBlend mode="normal" in="SourceGraphic" in2="effect1_dropShadow_280_164" result="shape"/>
</filter>
<linearGradient id="paint0_linear_280_164" x1="24.3019" y1="219.456" x2="414.358" y2="219.456" gradientUnits="userSpaceOnUse">
<stop stop-color="#E1EE58" stop-opacity="0.3"/>
<stop offset="0.1216" stop-color="#DAEA59" stop-opacity="0.3853"/>
<stop offset="0.304" stop-color="#C5E05A" stop-opacity="0.5131"/>
<stop offset="0.5245" stop-color="#A4CE5D" stop-opacity="0.6677"/>
<stop offset="0.7723" stop-color="#75B661" stop-opacity="0.8414"/>
<stop offset="0.9985" stop-color="#459D65"/>
</linearGradient>
<clipPath id="clip0_280_164">
<rect width="453.104" height="435.45" fill="white"/>
</clipPath>
</defs>
</svg>
