<svg width="556" height="534" viewBox="0 0 556 534" fill="none" xmlns="http://www.w3.org/2000/svg">
<g clip-path="url(#clip0_223_9870)">
<g opacity="0.26">
<path d="M342.214 472.105C372.246 442.63 383.416 399.625 404.003 363.623C429.472 319.106 454.967 274.615 480.436 230.097C489.961 213.436 499.591 196.589 504.818 178.124C514.422 144.219 502.138 105.14 481.259 77.6013C449.343 35.4713 388.138 16.6879 339.667 37.7529C309.264 50.9649 286.633 76.8584 260.74 97.5254C224.155 126.735 180.645 145.704 137.693 164.329C94.1301 183.218 51.8145 196.404 37.0371 247.156C21.1721 301.596 32.2086 363.305 62.5061 410.874C97.8444 466.295 158.28 502.562 223.677 508.399C262.358 511.848 302.87 504.366 333.751 479.64C336.722 477.226 339.535 474.705 342.214 472.105Z" fill="url(#paint0_linear_223_9870)"/>
</g>
<g filter="url(#filter0_d_223_9870)">
<path d="M20.1626 102.831C50.6458 23.4795 167.697 27.7509 201.231 102.433C211.419 125.117 213.462 152.151 230.043 170.669C252.275 195.475 291.805 194.812 323.244 183.881C354.682 172.951 383.308 153.822 415.94 147.216C472.98 135.676 520.31 185.048 536.308 235.801C553.897 291.594 538.324 355.134 501.686 400.739C465.048 446.344 409.414 474.626 351.684 484.123C287.136 494.736 216.937 481.63 166.662 439.792C139.044 416.816 118.855 384.768 109.808 350.013C102.645 322.448 107.553 291.939 98.7185 265.037C89.539 237.101 60.7272 225.905 42.2622 205.477C20.9054 181.838 9.44435 149.233 15.8381 117.582C16.8728 112.568 18.332 107.633 20.1626 102.831Z" fill="#FF97A0"/>
</g>
<path d="M20.0036 180.935C8.25076 238.479 18.1996 300.056 45.4461 352.453C136.896 528.11 383.627 463.323 444.381 297.721C454.887 269.069 459.423 234.951 442.365 209.641C423.21 181.227 384.449 174.435 350.199 175.099C315.948 175.762 280.106 181.041 248.641 167.485C195.979 144.748 173.773 83.1715 107.792 89.3266C55.5541 94.2346 29.7137 133.473 20.0036 180.935Z" fill="#85DFF7"/>
<path d="M245.457 94.1555C242.433 99.3289 240.682 105.166 240.788 111.161C241 123.524 249.304 134.986 260.314 140.61C283.263 152.336 311.65 140.743 327.276 122.171C335.235 112.727 339.241 98.9045 333.988 87.7352C330.46 80.1741 323.164 74.815 315.258 72.1885C307.326 69.562 298.783 69.4294 290.479 70.2253C278.726 71.3396 266.84 74.4171 257.236 81.2884C252.488 84.7108 248.402 89.1413 245.457 94.1555Z" fill="#85DFF7"/>
<path d="M434.803 11.3293C418.116 9.25992 396.6 17.2986 388.64 32.9249C375.853 58.0224 402.144 76.0099 421.724 86.1445C439.923 95.5627 455.205 108.907 469.69 123.26C480.17 133.634 490.516 154.274 505.851 158.094C559.389 171.413 510.441 78.9548 502.959 67.1754C487.731 43.1655 465.074 15.07 434.803 11.3293Z" fill="#85DFF7"/>
<path d="M230.998 66.3787C232.59 57.1993 224.604 47.4892 215.133 48.0463C207.094 48.5239 199.958 55.8462 200.064 63.8849C200.17 71.5521 206.749 78.6091 214.39 79.2193C222.057 79.8295 229.671 73.9398 230.998 66.3787Z" fill="#FF97A0"/>
<path d="M142.838 78.3429C138.143 78.3429 134.322 74.5226 134.322 69.8267C134.322 65.1309 138.143 61.3105 142.838 61.3105C147.534 61.3105 151.355 65.1309 151.355 69.8267C151.355 74.5226 147.534 78.3429 142.838 78.3429ZM142.838 63.3003C139.23 63.3003 136.312 66.2452 136.312 69.8267C136.312 73.4348 139.257 76.3532 142.838 76.3532C146.447 76.3532 149.365 73.4083 149.365 69.8267C149.365 66.2186 146.447 63.3003 142.838 63.3003Z" fill="white"/>
<path d="M8.5162 333.458C3.82035 333.458 0 329.638 0 324.942C0 320.246 3.82035 316.426 8.5162 316.426C13.212 316.426 17.0324 320.246 17.0324 324.942C17.0324 329.638 13.2386 333.458 8.5162 333.458ZM8.5162 318.389C4.90809 318.389 1.98977 321.334 1.98977 324.915C1.98977 328.524 4.93462 331.442 8.5162 331.442C12.1243 331.442 15.0426 328.497 15.0426 324.915C15.0692 321.334 12.1243 318.389 8.5162 318.389Z" fill="white"/>
<path d="M299.288 533.999C294.592 533.999 290.771 530.179 290.771 525.483C290.771 520.787 294.592 516.967 299.288 516.967C303.984 516.967 307.804 520.787 307.804 525.483C307.83 530.179 304.01 533.999 299.288 533.999ZM299.288 518.93C295.68 518.93 292.761 521.875 292.761 525.456C292.761 529.038 295.706 531.983 299.288 531.983C302.896 531.983 305.814 529.038 305.814 525.456C305.814 521.875 302.896 518.93 299.288 518.93Z" fill="white"/>
<path d="M347.864 157.323C343.168 157.323 339.348 153.503 339.348 148.807C339.348 144.111 343.168 140.291 347.864 140.291C352.56 140.291 356.38 144.111 356.38 148.807C356.407 153.503 352.56 157.323 347.864 157.323ZM347.864 142.281C344.256 142.281 341.337 145.226 341.337 148.807C341.337 152.415 344.282 155.334 347.864 155.334C351.472 155.334 354.39 152.389 354.39 148.807C354.417 145.199 351.472 142.281 347.864 142.281Z" fill="white"/>
<path d="M544.135 205.238C543.578 205.238 543.127 204.787 543.127 204.23V194.228C543.127 193.671 543.578 193.22 544.135 193.22C544.692 193.22 545.143 193.671 545.143 194.228V204.23C545.143 204.787 544.692 205.238 544.135 205.238Z" fill="white"/>
<path d="M549.149 200.223H539.147C538.59 200.223 538.139 199.772 538.139 199.215C538.139 198.658 538.59 198.207 539.147 198.207H549.149C549.706 198.207 550.157 198.658 550.157 199.215C550.13 199.799 549.679 200.223 549.149 200.223Z" fill="white"/>
<path d="M385.274 12.0182C384.717 12.0182 384.266 11.5672 384.266 11.01V1.00815C384.266 0.451014 384.717 0 385.274 0C385.831 0 386.282 0.451014 386.282 1.00815V11.0366C386.255 11.5672 385.804 12.0182 385.274 12.0182Z" fill="white"/>
<path d="M390.26 7.0036H380.258C379.701 7.0036 379.25 6.55259 379.25 5.99545C379.25 5.43832 379.701 4.9873 380.258 4.9873H390.26C390.817 4.9873 391.268 5.43832 391.268 5.99545C391.268 6.55259 390.817 7.0036 390.26 7.0036Z" fill="white"/>
<path d="M506.649 335.952C506.092 335.952 505.641 335.501 505.641 334.944V324.915C505.641 324.358 506.092 323.907 506.649 323.907C507.206 323.907 507.657 324.358 507.657 324.915V334.944C507.657 335.501 507.206 335.952 506.649 335.952Z" fill="white"/>
<path d="M511.662 330.938H501.66C501.103 330.938 500.652 330.487 500.652 329.93C500.652 329.373 501.103 328.922 501.66 328.922H511.662C512.219 328.922 512.671 329.373 512.671 329.93C512.671 330.487 512.219 330.938 511.662 330.938Z" fill="white"/>
<path d="M366.09 137.347C365.533 137.347 365.082 136.896 365.082 136.339V126.337C365.082 125.78 365.533 125.329 366.09 125.329C366.647 125.329 367.098 125.78 367.098 126.337V136.339C367.098 136.896 366.647 137.347 366.09 137.347Z" fill="white"/>
<path d="M371.104 132.333H361.102C360.545 132.333 360.094 131.882 360.094 131.325C360.094 130.767 360.545 130.316 361.102 130.316H371.104C371.661 130.316 372.112 130.767 372.112 131.325C372.112 131.882 371.661 132.333 371.104 132.333Z" fill="white"/>
<path d="M328.895 504.976C328.338 504.976 327.887 504.525 327.887 503.968V493.966C327.887 493.409 328.338 492.958 328.895 492.958C329.452 492.958 329.903 493.409 329.903 493.966V503.968C329.876 504.552 329.452 504.976 328.895 504.976Z" fill="white"/>
<path d="M333.908 499.988H323.907C323.349 499.988 322.898 499.537 322.898 498.98C322.898 498.423 323.349 497.972 323.907 497.972H333.908C334.466 497.972 334.917 498.423 334.917 498.98C334.917 499.537 334.439 499.988 333.908 499.988Z" fill="white"/>
<path d="M260.951 57.4645C260.394 57.4645 259.943 57.0135 259.943 56.4563V46.4544C259.943 45.8973 260.394 45.4463 260.951 45.4463C261.509 45.4463 261.96 45.8973 261.96 46.4544V56.4563C261.96 57.0135 261.509 57.4645 260.951 57.4645Z" fill="white"/>
<path d="M265.965 52.4499H255.963C255.406 52.4499 254.955 51.9989 254.955 51.4417C254.955 50.8846 255.406 50.4336 255.963 50.4336H265.965C266.522 50.4336 266.973 50.8846 266.973 51.4417C266.973 51.9989 266.522 52.4499 265.965 52.4499Z" fill="white"/>
</g>
<defs>
<filter id="filter0_d_223_9870" x="-37.9277" y="0.860352" width="649.477" height="562.77" filterUnits="userSpaceOnUse" color-interpolation-filters="sRGB">
<feFlood flood-opacity="0" result="BackgroundImageFix"/>
<feColorMatrix in="SourceAlpha" type="matrix" values="0 0 0 0 0 0 0 0 0 0 0 0 0 0 0 0 0 0 127 0" result="hardAlpha"/>
<feOffset dx="8" dy="16"/>
<feGaussianBlur stdDeviation="30"/>
<feComposite in2="hardAlpha" operator="out"/>
<feColorMatrix type="matrix" values="0 0 0 0 0.901961 0 0 0 0 0.290196 0 0 0 0 0.345098 0 0 0 0.24 0"/>
<feBlend mode="normal" in2="BackgroundImageFix" result="effect1_dropShadow_223_9870"/>
<feBlend mode="normal" in="SourceGraphic" in2="effect1_dropShadow_223_9870" result="shape"/>
</filter>
<linearGradient id="paint0_linear_223_9870" x1="29.8023" y1="269.123" x2="508.135" y2="269.123" gradientUnits="userSpaceOnUse">
<stop stop-color="#E1EE58" stop-opacity="0.3"/>
<stop offset="0.1216" stop-color="#DAEA59" stop-opacity="0.3853"/>
<stop offset="0.304" stop-color="#C5E05A" stop-opacity="0.5131"/>
<stop offset="0.5245" stop-color="#A4CE5D" stop-opacity="0.6677"/>
<stop offset="0.7723" stop-color="#75B661" stop-opacity="0.8414"/>
<stop offset="0.9985" stop-color="#459D65"/>
</linearGradient>
<clipPath id="clip0_223_9870">
<rect width="555.649" height="534" fill="white"/>
</clipPath>
</defs>
</svg>
