<svg width="510" height="490" viewBox="0 0 510 490" fill="none" xmlns="http://www.w3.org/2000/svg">
<g clip-path="url(#clip0_207_107)">
<g opacity="0.26">
<path d="M313.66 432.713C341.187 405.697 351.424 366.279 370.294 333.282C393.638 292.478 417.006 251.7 440.35 210.896C449.08 195.625 457.906 180.184 462.697 163.26C471.499 132.183 460.241 96.3648 441.104 71.1242C411.851 32.5093 355.752 15.2932 311.326 34.6006C283.459 46.7102 262.717 70.4433 238.984 89.3859C205.451 116.159 165.572 133.545 126.203 150.615C86.2753 167.929 47.4903 180.014 33.9459 226.532C19.4045 276.43 29.5203 332.99 57.2899 376.59C89.6796 427.387 145.073 460.628 205.013 465.978C240.467 469.139 277.599 462.282 305.903 439.618C308.627 437.406 311.204 435.096 313.66 432.713Z" fill="url(#paint0_linear_207_107)"/>
</g>
<g filter="url(#filter0_d_207_107)">
<path d="M18.4806 94.2494C46.4204 21.5183 153.705 25.4333 184.442 93.8846C193.779 114.675 195.652 139.454 210.85 156.427C231.227 179.163 267.459 178.555 296.274 168.537C325.089 158.518 351.327 140.986 381.236 134.931C433.517 124.353 476.898 169.607 491.561 216.124C507.683 267.262 493.409 325.501 459.828 367.301C426.246 409.101 375.254 435.023 322.341 443.728C263.179 453.455 198.837 441.442 152.757 403.095C127.443 382.037 108.938 352.662 100.646 320.808C94.081 295.543 98.5796 267.578 90.4821 242.921C82.0686 217.316 55.6607 207.054 38.7363 188.33C19.1614 166.664 8.65665 136.779 14.517 107.769C15.4653 103.174 16.8027 98.6507 18.4806 94.2494Z" fill="#00CCFF"/>
</g>
<path d="M18.3341 165.837C7.56178 218.58 16.6805 275.019 41.6537 323.044C125.473 484.045 351.618 424.663 407.303 272.879C416.932 246.617 421.091 215.346 405.455 192.148C387.898 166.105 352.372 159.88 320.979 160.487C289.586 161.095 256.734 165.934 227.895 153.509C179.626 132.669 159.273 76.2303 98.7978 81.8717C50.9184 86.3703 27.2339 122.335 18.3341 165.837Z" fill="#FA9817"/>
<path d="M224.977 86.298C222.205 91.0397 220.6 96.3894 220.698 101.885C220.892 113.216 228.503 123.721 238.595 128.876C259.628 139.624 285.647 128.998 299.97 111.976C307.265 103.32 310.937 90.6506 306.122 80.4133C302.888 73.4831 296.201 68.5711 288.954 66.1638C281.684 63.7564 273.854 63.6349 266.243 64.3644C255.47 65.3857 244.576 68.2064 235.774 74.5044C231.421 77.6412 227.676 81.7021 224.977 86.298Z" fill="#FA9817"/>
<path d="M398.523 10.3816C383.228 8.48494 363.507 15.8529 356.212 30.1754C344.492 53.1789 368.59 69.6656 386.535 78.9546C403.216 87.587 417.223 99.8182 430.5 112.974C440.105 122.481 449.588 141.4 463.643 144.901C512.714 157.108 467.85 72.3648 460.993 61.5682C447.035 39.5616 426.269 13.8103 398.523 10.3816Z" fill="#FA9817"/>
<path d="M211.725 60.8384C213.184 52.4249 205.865 43.525 197.184 44.0356C189.816 44.4733 183.275 51.1847 183.372 58.5527C183.469 65.5802 189.5 72.0484 196.503 72.6077C203.531 73.167 210.51 67.7687 211.725 60.8384Z" fill="#00CCFF"/>
<path d="M130.921 71.8046C126.617 71.8046 123.115 68.303 123.115 63.999C123.115 59.695 126.617 56.1934 130.921 56.1934C135.225 56.1934 138.727 59.695 138.727 63.999C138.727 68.303 135.225 71.8046 130.921 71.8046ZM130.921 58.0171C127.614 58.0171 124.939 60.7163 124.939 63.999C124.939 67.3061 127.638 69.9809 130.921 69.9809C134.228 69.9809 136.903 67.2817 136.903 63.999C136.903 60.6919 134.228 58.0171 130.921 58.0171Z" fill="white"/>
<path d="M7.80564 305.634C3.5016 305.634 0 302.132 0 297.828C0 293.524 3.5016 290.023 7.80564 290.023C12.1097 290.023 15.6113 293.524 15.6113 297.828C15.6113 302.132 12.134 305.634 7.80564 305.634ZM7.80564 291.822C4.49858 291.822 1.82375 294.521 1.82375 297.804C1.82375 301.111 4.52289 303.786 7.80564 303.786C11.1127 303.786 13.7875 301.087 13.7875 297.804C13.8119 294.521 11.1127 291.822 7.80564 291.822Z" fill="white"/>
<path d="M274.315 489.442C270.011 489.442 266.51 485.941 266.51 481.637C266.51 477.333 270.011 473.831 274.315 473.831C278.619 473.831 282.121 477.333 282.121 481.637C282.145 485.941 278.644 489.442 274.315 489.442ZM274.315 475.63C271.008 475.63 268.334 478.33 268.334 481.612C268.334 484.895 271.033 487.594 274.315 487.594C277.622 487.594 280.297 484.895 280.297 481.612C280.297 478.33 277.622 475.63 274.315 475.63Z" fill="white"/>
<path d="M318.841 144.195C314.537 144.195 311.035 140.694 311.035 136.39C311.035 132.086 314.537 128.584 318.841 128.584C323.145 128.584 326.646 132.086 326.646 136.39C326.671 140.694 323.145 144.195 318.841 144.195ZM318.841 130.408C315.534 130.408 312.859 133.107 312.859 136.39C312.859 139.697 315.558 142.372 318.841 142.372C322.148 142.372 324.823 139.672 324.823 136.39C324.847 133.083 322.148 130.408 318.841 130.408Z" fill="white"/>
<path d="M498.733 188.111C498.222 188.111 497.809 187.698 497.809 187.187V178.02C497.809 177.509 498.222 177.096 498.733 177.096C499.243 177.096 499.657 177.509 499.657 178.02V187.187C499.657 187.698 499.243 188.111 498.733 188.111Z" fill="white"/>
<path d="M503.33 183.514H494.162C493.652 183.514 493.238 183.101 493.238 182.59C493.238 182.079 493.652 181.666 494.162 181.666H503.33C503.84 181.666 504.254 182.079 504.254 182.59C504.229 183.125 503.816 183.514 503.33 183.514Z" fill="white"/>
<path d="M353.127 11.0135C352.617 11.0135 352.203 10.6001 352.203 10.0895V0.922079C352.203 0.41143 352.617 -0.00195312 353.127 -0.00195312C353.638 -0.00195312 354.051 0.41143 354.051 0.922079V10.1138C354.027 10.6001 353.614 11.0135 353.127 11.0135Z" fill="white"/>
<path d="M357.697 6.41838H348.53C348.019 6.41838 347.605 6.00499 347.605 5.49434C347.605 4.9837 348.019 4.57031 348.53 4.57031H357.697C358.208 4.57031 358.621 4.9837 358.621 5.49434C358.621 6.00499 358.208 6.41838 357.697 6.41838Z" fill="white"/>
<path d="M464.373 307.919C463.863 307.919 463.449 307.505 463.449 306.995V297.803C463.449 297.292 463.863 296.879 464.373 296.879C464.884 296.879 465.297 297.292 465.297 297.803V306.995C465.297 307.505 464.884 307.919 464.373 307.919Z" fill="white"/>
<path d="M468.97 303.323H459.803C459.292 303.323 458.879 302.909 458.879 302.399C458.879 301.888 459.292 301.475 459.803 301.475H468.97C469.481 301.475 469.894 301.888 469.894 302.399C469.894 302.909 469.481 303.323 468.97 303.323Z" fill="white"/>
<path d="M335.545 125.886C335.034 125.886 334.621 125.472 334.621 124.962V115.794C334.621 115.283 335.034 114.87 335.545 114.87C336.056 114.87 336.469 115.283 336.469 115.794V124.962C336.469 125.472 336.056 125.886 335.545 125.886Z" fill="white"/>
<path d="M340.142 121.288H330.975C330.464 121.288 330.051 120.875 330.051 120.364C330.051 119.854 330.464 119.44 330.975 119.44H340.142C340.653 119.44 341.066 119.854 341.066 120.364C341.066 120.875 340.653 121.288 340.142 121.288Z" fill="white"/>
<path d="M301.453 462.842C300.943 462.842 300.529 462.428 300.529 461.918V452.75C300.529 452.24 300.943 451.826 301.453 451.826C301.964 451.826 302.377 452.24 302.377 452.75V461.918C302.353 462.453 301.964 462.842 301.453 462.842Z" fill="white"/>
<path d="M306.05 458.27H296.883C296.372 458.27 295.959 457.857 295.959 457.346C295.959 456.835 296.372 456.422 296.883 456.422H306.05C306.561 456.422 306.974 456.835 306.974 457.346C306.974 457.857 306.537 458.27 306.05 458.27Z" fill="white"/>
<path d="M239.176 52.6678C238.665 52.6678 238.252 52.2544 238.252 51.7438V42.5764C238.252 42.0657 238.665 41.6523 239.176 41.6523C239.687 41.6523 240.1 42.0657 240.1 42.5764V51.7438C240.1 52.2544 239.687 52.6678 239.176 52.6678Z" fill="white"/>
<path d="M243.773 48.0707H234.606C234.095 48.0707 233.682 47.6573 233.682 47.1467C233.682 46.636 234.095 46.2227 234.606 46.2227H243.773C244.284 46.2227 244.697 46.636 244.697 47.1467C244.697 47.6573 244.284 48.0707 243.773 48.0707Z" fill="white"/>
</g>
<defs>
<filter id="filter0_d_207_107" x="-39.1016" y="-2.88477" width="605.299" height="525.827" filterUnits="userSpaceOnUse" color-interpolation-filters="sRGB">
<feFlood flood-opacity="0" result="BackgroundImageFix"/>
<feColorMatrix in="SourceAlpha" type="matrix" values="0 0 0 0 0 0 0 0 0 0 0 0 0 0 0 0 0 0 127 0" result="hardAlpha"/>
<feOffset dx="8" dy="16"/>
<feGaussianBlur stdDeviation="30"/>
<feComposite in2="hardAlpha" operator="out"/>
<feColorMatrix type="matrix" values="0 0 0 0 0.901961 0 0 0 0 0.290196 0 0 0 0 0.345098 0 0 0 0.24 0"/>
<feBlend mode="normal" in2="BackgroundImageFix" result="effect1_dropShadow_207_107"/>
<feBlend mode="normal" in="SourceGraphic" in2="effect1_dropShadow_207_107" result="shape"/>
</filter>
<linearGradient id="paint0_linear_207_107" x1="27.3147" y1="246.666" x2="465.737" y2="246.666" gradientUnits="userSpaceOnUse">
<stop stop-color="#E1EE58" stop-opacity="0.3"/>
<stop offset="0.1216" stop-color="#DAEA59" stop-opacity="0.3853"/>
<stop offset="0.304" stop-color="#C5E05A" stop-opacity="0.5131"/>
<stop offset="0.5245" stop-color="#A4CE5D" stop-opacity="0.6677"/>
<stop offset="0.7723" stop-color="#75B661" stop-opacity="0.8414"/>
<stop offset="0.9985" stop-color="#459D65"/>
</linearGradient>
<clipPath id="clip0_207_107">
<rect width="509.288" height="489.445" fill="white" transform="translate(0 -0.00195312)"/>
</clipPath>
</defs>
</svg>
