<svg width="427" height="410" viewBox="0 0 427 410" fill="none" xmlns="http://www.w3.org/2000/svg">
<g clip-path="url(#clip0_208_234)">
<g opacity="0.26">
<path d="M262.749 362.478C285.807 339.847 294.383 306.828 310.19 279.186C329.745 245.006 349.32 210.846 368.875 176.666C376.188 163.874 383.582 150.939 387.595 136.762C394.968 110.73 385.537 80.7251 369.506 59.5815C345.002 27.2345 298.009 12.8128 260.794 28.9863C237.45 39.1303 220.075 59.0111 200.194 74.879C172.104 97.306 138.698 111.87 105.72 126.17C72.2726 140.673 39.7831 150.797 28.4372 189.764C16.2561 231.562 24.7299 278.942 47.992 315.465C75.1244 358.017 121.526 385.862 171.738 390.344C201.436 392.992 232.541 387.247 256.251 368.263C258.533 366.409 260.692 364.474 262.749 362.478Z" fill="url(#paint0_linear_208_234)"/>
</g>
<g filter="url(#filter0_d_208_234)">
<path d="M15.4807 78.9529C38.8855 18.0273 128.756 21.3069 154.503 78.6474C162.325 96.0634 163.894 116.82 176.625 131.038C193.695 150.084 224.045 149.574 248.183 141.182C272.321 132.79 294.3 118.103 319.355 113.031C363.15 104.171 399.489 142.078 411.772 181.046C425.277 223.883 413.32 272.668 385.19 307.684C357.059 342.699 314.344 364.413 270.02 371.705C220.46 379.853 166.562 369.791 127.962 337.668C106.757 320.028 91.2558 295.421 84.3097 268.737C78.8099 247.573 82.5783 224.148 75.7952 203.493C68.7473 182.044 46.6259 173.448 32.4487 157.763C16.0511 139.614 7.25142 114.579 12.1605 90.2784C12.9549 86.4286 14.0752 82.6398 15.4807 78.9529Z" fill="#A862E2"/>
</g>
<path d="M15.3583 138.92C6.33457 183.102 13.9732 230.38 34.8928 270.61C105.107 405.478 294.545 355.735 341.191 228.588C349.257 206.588 352.741 180.393 339.643 160.96C324.936 139.145 295.176 133.93 268.879 134.439C242.582 134.948 215.062 139.002 190.904 128.593C150.47 111.136 133.421 63.8584 82.7614 68.5841C42.6536 72.3525 22.8136 102.479 15.3583 138.92Z" fill="#F29111"/>
<path d="M188.46 72.2912C186.138 76.2633 184.793 80.7446 184.875 85.3482C185.038 94.8404 191.413 103.64 199.867 107.958C217.486 116.962 239.282 108.06 251.28 93.8015C257.39 86.55 260.466 75.9374 256.433 67.3618C253.724 61.5564 248.122 57.4417 242.052 55.4252C235.962 53.4086 229.403 53.3067 223.027 53.9178C214.003 54.7733 204.878 57.1362 197.504 62.4119C193.858 65.0396 190.721 68.4414 188.46 72.2912Z" fill="#F29111"/>
<g filter="url(#filter1_d_208_234)">
<path d="M333.837 8.6992C321.025 7.11036 304.505 13.2824 298.394 25.2801C288.576 44.5498 308.762 58.3604 323.795 66.1416C337.768 73.3728 349.501 83.6187 360.623 94.6387C368.669 102.603 376.613 118.451 388.387 121.384C429.493 131.61 391.911 60.6214 386.167 51.5773C374.474 33.1428 357.079 11.5713 333.837 8.6992Z" fill="#F29111"/>
</g>
<path d="M177.357 50.9651C178.58 43.9172 172.448 36.4619 165.176 36.8896C159.004 37.2563 153.525 42.8783 153.606 49.0503C153.688 54.9371 158.74 60.3555 164.606 60.824C170.493 61.2925 176.339 56.7704 177.357 50.9651Z" fill="#A862E2"/>
<path d="M109.67 60.1508C106.064 60.1508 103.131 57.2176 103.131 53.6121C103.131 50.0067 106.064 47.0735 109.67 47.0735C113.275 47.0735 116.208 50.0067 116.208 53.6121C116.208 57.2176 113.275 60.1508 109.67 60.1508ZM109.67 48.6012C106.899 48.6012 104.659 50.8622 104.659 53.6121C104.659 56.3824 106.92 58.6231 109.67 58.6231C112.44 58.6231 114.68 56.362 114.68 53.6121C114.68 50.8419 112.44 48.6012 109.67 48.6012Z" fill="white"/>
<path d="M6.53865 256.027C2.93323 256.027 0 253.093 0 249.488C0 245.883 2.93323 242.949 6.53865 242.949C10.1441 242.949 13.0773 245.883 13.0773 249.488C13.0773 253.093 10.1644 256.027 6.53865 256.027ZM6.53865 244.457C3.76838 244.457 1.52772 246.718 1.52772 249.468C1.52772 252.238 3.78875 254.479 6.53865 254.479C9.30892 254.479 11.5496 252.218 11.5496 249.468C11.57 246.718 9.30892 244.457 6.53865 244.457Z" fill="white"/>
<path d="M229.791 409.999C226.185 409.999 223.252 407.066 223.252 403.461C223.252 399.855 226.185 396.922 229.791 396.922C233.396 396.922 236.329 399.855 236.329 403.461C236.35 407.066 233.416 409.999 229.791 409.999ZM229.791 398.429C227.02 398.429 224.78 400.69 224.78 403.44C224.78 406.19 227.041 408.451 229.791 408.451C232.561 408.451 234.802 406.19 234.802 403.44C234.802 400.69 232.561 398.429 229.791 398.429Z" fill="white"/>
<path d="M267.087 120.791C263.482 120.791 260.549 117.858 260.549 114.253C260.549 110.647 263.482 107.714 267.087 107.714C270.693 107.714 273.626 110.647 273.626 114.253C273.647 117.858 270.693 120.791 267.087 120.791ZM267.087 109.242C264.317 109.242 262.077 111.503 262.077 114.253C262.077 117.023 264.338 119.263 267.087 119.263C269.858 119.263 272.098 117.002 272.098 114.253C272.119 111.482 269.858 109.242 267.087 109.242Z" fill="white"/>
<path d="M417.782 157.58C417.354 157.58 417.008 157.234 417.008 156.806V149.127C417.008 148.699 417.354 148.353 417.782 148.353C418.21 148.353 418.556 148.699 418.556 149.127V156.806C418.556 157.234 418.21 157.58 417.782 157.58Z" fill="white"/>
<path d="M421.631 153.73H413.952C413.524 153.73 413.178 153.383 413.178 152.956C413.178 152.528 413.524 152.182 413.952 152.182H421.631C422.059 152.182 422.405 152.528 422.405 152.956C422.385 153.404 422.039 153.73 421.631 153.73Z" fill="white"/>
<path d="M295.807 9.22744C295.379 9.22744 295.033 8.88116 295.033 8.4534V0.774046C295.033 0.346284 295.379 0 295.807 0C296.235 0 296.581 0.346284 296.581 0.774046V8.47377C296.561 8.88116 296.215 9.22744 295.807 9.22744Z" fill="white"/>
<path d="M299.637 5.37719H291.958C291.53 5.37719 291.184 5.03091 291.184 4.60315C291.184 4.17539 291.53 3.8291 291.958 3.8291H299.637C300.065 3.8291 300.411 4.17539 300.411 4.60315C300.411 5.03091 300.065 5.37719 299.637 5.37719Z" fill="white"/>
<path d="M388.999 257.941C388.571 257.941 388.225 257.595 388.225 257.167V249.467C388.225 249.04 388.571 248.693 388.999 248.693C389.426 248.693 389.773 249.04 389.773 249.467V257.167C389.773 257.595 389.426 257.941 388.999 257.941Z" fill="white"/>
<path d="M392.848 254.091H385.169C384.741 254.091 384.395 253.745 384.395 253.317C384.395 252.889 384.741 252.543 385.169 252.543H392.848C393.276 252.543 393.622 252.889 393.622 253.317C393.622 253.745 393.276 254.091 392.848 254.091Z" fill="white"/>
<path d="M281.079 105.453C280.651 105.453 280.305 105.107 280.305 104.679V96.9996C280.305 96.5719 280.651 96.2256 281.079 96.2256C281.507 96.2256 281.853 96.5719 281.853 96.9996V104.679C281.853 105.107 281.507 105.453 281.079 105.453Z" fill="white"/>
<path d="M284.93 101.604H277.251C276.823 101.604 276.477 101.257 276.477 100.83C276.477 100.402 276.823 100.056 277.251 100.056H284.93C285.358 100.056 285.704 100.402 285.704 100.83C285.704 101.257 285.358 101.604 284.93 101.604Z" fill="white"/>
<path d="M252.524 387.717C252.096 387.717 251.75 387.37 251.75 386.943V379.263C251.75 378.836 252.096 378.489 252.524 378.489C252.952 378.489 253.298 378.836 253.298 379.263V386.943C253.278 387.391 252.952 387.717 252.524 387.717Z" fill="white"/>
<path d="M256.373 383.888H248.694C248.266 383.888 247.92 383.542 247.92 383.114C247.92 382.686 248.266 382.34 248.694 382.34H256.373C256.801 382.34 257.147 382.686 257.147 383.114C257.147 383.542 256.781 383.888 256.373 383.888Z" fill="white"/>
<path d="M200.356 44.12C199.928 44.12 199.582 43.7737 199.582 43.346V35.6666C199.582 35.2389 199.928 34.8926 200.356 34.8926C200.784 34.8926 201.13 35.2389 201.13 35.6666V43.346C201.13 43.7737 200.784 44.12 200.356 44.12Z" fill="white"/>
<path d="M204.205 40.2706H196.526C196.098 40.2706 195.752 39.9243 195.752 39.4966C195.752 39.0688 196.098 38.7225 196.526 38.7225H204.205C204.633 38.7225 204.979 39.0688 204.979 39.4966C204.979 39.9243 204.633 40.2706 204.205 40.2706Z" fill="white"/>
</g>
<defs>
<filter id="filter0_d_208_234" x="-31.1953" y="0.443359" width="490.527" height="423.954" filterUnits="userSpaceOnUse" color-interpolation-filters="sRGB">
<feFlood flood-opacity="0" result="BackgroundImageFix"/>
<feColorMatrix in="SourceAlpha" type="matrix" values="0 0 0 0 0 0 0 0 0 0 0 0 0 0 0 0 0 0 127 0" result="hardAlpha"/>
<feOffset dy="8"/>
<feGaussianBlur stdDeviation="21"/>
<feComposite in2="hardAlpha" operator="out"/>
<feColorMatrix type="matrix" values="0 0 0 0 0.219608 0 0 0 0 0.247059 0 0 0 0 0.6 0 0 0 0.16 0"/>
<feBlend mode="normal" in2="BackgroundImageFix" result="effect1_dropShadow_208_234"/>
<feBlend mode="normal" in="SourceGraphic" in2="effect1_dropShadow_208_234" result="shape"/>
</filter>
<filter id="filter1_d_208_234" x="271.34" y="-38.5905" width="205.657" height="208.023" filterUnits="userSpaceOnUse" color-interpolation-filters="sRGB">
<feFlood flood-opacity="0" result="BackgroundImageFix"/>
<feColorMatrix in="SourceAlpha" type="matrix" values="0 0 0 0 0 0 0 0 0 0 0 0 0 0 0 0 0 0 127 0" result="hardAlpha"/>
<feOffset dx="22.5809"/>
<feGaussianBlur stdDeviation="23.5218"/>
<feComposite in2="hardAlpha" operator="out"/>
<feColorMatrix type="matrix" values="0 0 0 0 0 0 0 0 0 0 0 0 0 0 0 0 0 0 0.12 0"/>
<feBlend mode="normal" in2="BackgroundImageFix" result="effect1_dropShadow_208_234"/>
<feBlend mode="normal" in="SourceGraphic" in2="effect1_dropShadow_208_234" result="shape"/>
</filter>
<linearGradient id="paint0_linear_208_234" x1="22.8824" y1="206.63" x2="390.141" y2="206.63" gradientUnits="userSpaceOnUse">
<stop stop-color="#E1EE58" stop-opacity="0.3"/>
<stop offset="0.1216" stop-color="#DAEA59" stop-opacity="0.3853"/>
<stop offset="0.304" stop-color="#C5E05A" stop-opacity="0.5131"/>
<stop offset="0.5245" stop-color="#A4CE5D" stop-opacity="0.6677"/>
<stop offset="0.7723" stop-color="#75B661" stop-opacity="0.8414"/>
<stop offset="0.9985" stop-color="#459D65"/>
</linearGradient>
<clipPath id="clip0_208_234">
<rect width="426.622" height="410" fill="white"/>
</clipPath>
</defs>
</svg>
